<?xml version="1.0" encoding="UTF-8"?>
<svg width="30px" height="30px" viewBox="0 0 30 30" version="1.1" xmlns="http://www.w3.org/2000/svg" xmlns:xlink="http://www.w3.org/1999/xlink">
    <title>directions</title>
    <g id="Page-1" stroke="none" stroke-width="1" fill="none" fill-rule="evenodd">
        <g id="6---Restaurants---Expanded" transform="translate(-108.000000, -250.000000)">
            <g id="directions" transform="translate(108.000000, 250.000000)">
                <circle id="Oval" fill="#20305B" cx="15" cy="15" r="15"></circle>
                <g transform="translate(10.000000, 8.000000)" fill="#FFFFFF" fill-rule="nonzero" id="Shape">
                    <path d="M4.98927839,0 C2.23242922,0.00459475499 0,2.24075473 0,4.99760773 C0,7.92454 3.33173848,12.0792179 4.6361141,14.7795919 C4.70208676,14.9144743 4.8391263,15 4.98927839,15 C5.13943045,15 5.27647,14.9144743 5.34244265,14.7795919 C6.64348655,12.0708885 9.9868861,7.91621065 9.9868861,4.99760773 C9.9868861,2.23750519 7.7493809,0 4.98927839,0 Z M4.98927839,7.19155866 C3.98856174,7.19155866 3.08641351,6.588651 2.70361163,5.66404485 C2.32080976,4.7394387 2.53276445,3.67527583 3.24061627,2.96790068 C3.94846809,2.26052552 5.0127735,2.04928773 5.9371216,2.43271236 C6.86146965,2.81613698 7.4637681,3.71869114 7.46309531,4.71940756 C7.46309531,5.37535125 7.2024078,6.00440485 6.7384294,6.4680708 C6.27445095,6.93173675 5.6452219,7.19199955 4.98927839,7.19155866 L4.98927839,7.19155866 Z"></path>
                </g>
            </g>
        </g>
    </g>
</svg>