<?xml version="1.0" encoding="UTF-8"?>
<svg width="20px" height="20px" viewBox="0 0 20 20" version="1.1" xmlns="http://www.w3.org/2000/svg" xmlns:xlink="http://www.w3.org/1999/xlink">
    <title>website 2</title>
    <g id="Page-1" stroke="none" stroke-width="1" fill="none" fill-rule="evenodd">
        <g id="6---Restaurants---Expanded" transform="translate(-33.000000, -254.000000)" fill="#FFFFFF" fill-rule="nonzero">
            <g id="website" transform="translate(28.000000, 249.000000)">
                <g transform="translate(5.000000, 5.000000)" id="Shape">
                    <path d="M10,0 C15.519,0 20,4.481 20,10 C20,15.519 15.519,20 10,20 C4.481,20 0,15.519 0,10 C0,4.481 4.481,0 10,0 Z M12.537,14 L7.463,14 C7.754,15.164 8.175,16.172 8.7,16.943 C9.093,17.519 9.476,18 10,18 C10.524,18 10.907,17.519 11.3,16.943 C11.825,16.172 12.246,15.164 12.537,14 Z M5.417,14 L3.072,14 C3.876,15.389 5.085,16.514 6.538,17.213 C6.066,16.307 5.683,15.216 5.417,14 Z M16.928,14 L14.583,14 C14.317,15.216 13.934,16.307 13.462,17.213 C14.915,16.514 16.124,15.389 16.928,14 Z M5.1,8 L2.252,8 C2.088,8.639 2,9.309 2,10 C2,10.691 2.088,11.361 2.252,12 L5.1,12 C5.035,11.354 5,10.685 5,10 C5,9.315 5.035,8.646 5.1,8 Z M12.891,8 L7.109,8 C7.037,8.642 7,9.312 7,10 C7,10.688 7.037,11.358 7.109,12 L12.891,12 C12.963,11.358 13,10.688 13,10 C13,9.312 12.963,8.642 12.891,8 Z M17.748,8 L14.9,8 C14.965,8.646 15,9.315 15,10 C15,10.685 14.965,11.354 14.9,12 L17.748,12 C17.912,11.361 18,10.691 18,10 C18,9.309 17.912,8.639 17.748,8 Z M6.538,2.787 C5.085,3.486 3.876,4.611 3.072,6 L5.417,6 C5.683,4.784 6.066,3.693 6.538,2.787 Z M10,2 C9.476,2 9.093,2.481 8.7,3.057 C8.175,3.828 7.754,4.836 7.463,6 L12.537,6 C12.246,4.836 11.825,3.828 11.3,3.057 C10.907,2.481 10.524,2 10,2 Z M13.462,2.787 C13.934,3.693 14.317,4.784 14.583,6 L16.928,6 C16.124,4.611 14.915,3.486 13.462,2.787 Z"></path>
                </g>
            </g>
        </g>
    </g>
</svg>