<?xml version="1.0" encoding="UTF-8"?>
<svg width="30px" height="30px" viewBox="0 0 30 30" version="1.1" xmlns="http://www.w3.org/2000/svg" xmlns:xlink="http://www.w3.org/1999/xlink">
    <title>more</title>
    <g id="Page-1" stroke="none" stroke-width="1" fill="none" fill-rule="evenodd">
        <g id="6---Restaurants---Expanded" transform="translate(-223.000000, -250.000000)">
            <g id="more" transform="translate(223.000000, 250.000000)">
                <circle id="Oval" fill="#20305B" cx="15" cy="15" r="15"></circle>
                <path d="M10,15 C10,16.1045695 9.1045695,17 8,17 C6.8954305,17 6,16.1045695 6,15 C6,13.8954305 6.8954305,13 8,13 C9.1045695,13 10,13.8954305 10,15 Z M15,13 C13.8954305,13 13,13.8954305 13,15 C13,16.1045695 13.8954305,17 15,17 C16.1045695,17 17,16.1045695 17,15 C17,13.8954305 16.1045695,13 15,13 Z M22,13 C20.8954305,13 20,13.8954305 20,15 C20,16.1045695 20.8954305,17 22,17 C23.1045695,17 24,16.1045695 24,15 C24,13.8954305 23.1045695,13 22,13 Z" fill="#FFFFFF" fill-rule="nonzero"></path>
            </g>
        </g>
    </g>
</svg>