<?xml version="1.0" encoding="UTF-8"?>
<svg width="30px" height="30px" viewBox="0 0 30 30" version="1.1" xmlns="http://www.w3.org/2000/svg" xmlns:xlink="http://www.w3.org/1999/xlink">
    <title>more 3</title>
    <g id="Page-1" stroke="none" stroke-width="1" fill="none" fill-rule="evenodd">
        <g id="6---Restaurants---Expanded" transform="translate(-188.000000, -249.000000)" fill="#20305B" fill-rule="nonzero">
            <g id="more" transform="translate(188.000000, 249.000000)">
                <path d="M14.9978785,1.50140146e-07 C6.71388356,0.00117184541 -0.000781002421,6.71741925 0,15.0014143 C0.000781002421,23.2854093 6.71671184,30.0003905 15.0007069,30.0000002 C23.2847019,29.9996095 30,23.2839953 30,15.0000002 C30,11.0213853 28.419356,7.20575514 25.6058516,4.39264849 C22.7923471,1.57954183 18.9764934,-0.000562366151 14.9978785,1.50140146e-07 Z M7.48408984,18.0929157 C6.23292993,18.0937731 5.10449011,17.3407529 4.62509721,16.1850781 C4.14570431,15.0294033 4.40979709,13.6987377 5.2941974,12.8137304 C6.17859772,11.9287231 7.50908176,11.6637174 8.66508523,12.1423172 C9.82108871,12.6209171 10.5748832,13.74884 10.5748832,15.0000002 C10.5748832,16.7073418 9.19143098,18.0917439 7.48408984,18.0929157 Z M14.9978785,18.0929149 C13.2897089,18.0929149 11.9049638,16.7081699 11.9049638,15.0000002 C11.9049638,13.2918306 13.2897089,11.9070855 14.9978785,11.9070855 C16.7060482,11.9070855 18.0907932,13.2918306 18.0907932,15.0000002 C18.0907932,15.8202922 17.7649335,16.6069872 17.1848995,17.1870212 C16.6048655,17.7670552 15.8181705,18.0929149 14.9978785,18.0929149 L14.9978785,18.0929149 Z M22.5137885,18.0929157 C21.2626286,18.0937731 20.1341888,17.3407529 19.6547959,16.1850781 C19.175403,15.0294033 19.4394958,13.6987377 20.3238961,12.8137304 C21.2082964,11.9287231 22.5387805,11.6637174 23.6947839,12.1423172 C24.8507874,12.6209171 25.6045826,13.74884 25.6045826,15.0000002 C25.6051448,15.8200971 25.2797571,16.6067976 24.7000598,17.1868926 C24.1203626,17.7669877 23.3338856,18.0929157 22.5137885,18.0929157 L22.5137885,18.0929157 Z" id="Shape"></path>
            </g>
        </g>
    </g>
</svg>