<?xml version="1.0" encoding="UTF-8"?>
<svg width="16px" height="15px" viewBox="0 0 16 15" version="1.1" xmlns="http://www.w3.org/2000/svg" xmlns:xlink="http://www.w3.org/1999/xlink">
    <title>phone 2</title>
    <g id="Page-1" stroke="none" stroke-width="1" fill="none" fill-rule="evenodd">
        <g id="6---Restaurants---Expanded" transform="translate(-76.000000, -256.000000)" fill="#FFFFFF" fill-rule="nonzero">
            <g id="phone" transform="translate(68.000000, 249.000000)">
                <g transform="translate(8.000000, 7.000000)" id="Path">
                    <path d="M2.37136966,0.0136638509 C2.2673599,-0.0071381016 2.14254818,-0.0071381016 2.05934037,0.0344658034 C0.93603494,0.471306805 0.228768555,2.07305714 0.0623529347,3.17556063 C-0.457695877,6.75349645 2.37136966,9.8529874 4.97161372,11.8915787 C7.28063045,13.7013486 11.7114463,16.6760278 14.3324923,13.8053583 C14.6653236,13.4517251 15.0605607,12.9316763 15.0397587,12.4116275 C14.9773528,11.5379455 14.1660767,10.9138869 13.5420181,10.435442 C13.0635732,10.0818088 12.0650795,9.1041171 11.4410209,9.12491905 C10.8793682,9.145721 10.525735,9.72817565 10.1721018,10.0818088 L9.54804325,10.7058674 C9.4440335,10.8098772 8.11270855,9.9361952 7.9670949,9.83218545 C7.4262441,9.47855225 6.9061953,9.08331515 6.44855235,8.64647415 C5.9909094,8.20963315 5.57487035,7.7311882 5.22123715,7.23194135 C5.1172274,7.0863277 4.26434734,5.8174086 4.34755515,5.71339885 C4.34755515,5.71339885 5.0756235,4.92292464 5.283643,4.61089535 C5.720484,3.94523287 6.05331525,3.42518406 5.5540684,2.63470986 C5.3668508,2.34348253 5.13802935,2.11466105 4.88840591,1.86503762 C4.45156491,1.44899857 4.01472391,1.01215757 3.51547705,0.65852438 C3.24505166,0.450504853 2.78740871,0.0760697085 2.37136966,0.0136638509 Z"></path>
                </g>
            </g>
        </g>
    </g>
</svg>