<?xml version="1.0" encoding="UTF-8"?>
<svg width="17px" height="12px" viewBox="0 0 17 12" version="1.1" xmlns="http://www.w3.org/2000/svg" xmlns:xlink="http://www.w3.org/1999/xlink">
    <title>ride 2</title>
    <g id="Page-1" stroke="none" stroke-width="1" fill="none" fill-rule="evenodd">
        <g id="6---Restaurants---Expanded" transform="translate(-155.000000, -258.000000)" fill="#FFFFFF">
            <g id="ride" transform="translate(148.000000, 250.000000)">
                <g transform="translate(7.000000, 8.000000)" id="Shape">
                    <path d="M2.71338853,4.24911032 C3.05502554,3.52313167 3.37531024,2.7544484 3.78100419,1.92170819 C3.99452732,1.53736655 4.27210739,1.17437722 4.72050597,1.1316726 L11.745417,1.1316726 C12.2151679,1.17437722 12.4713956,1.53736655 12.7062711,1.92170819 C13.111965,2.7544484 13.4322497,3.52313167 13.7738868,4.24911032 L2.71338853,4.24911032 Z M4.72050597,0 C3.97317501,0 3.50342412,0.277580071 2.88420704,1.15302491 L1.83794369,3.50177936 L0.236520203,3.50177936 C0.0016447579,3.50177936 -0.446753819,4.80427046 1.21872661,4.84697509 L0.663566466,6.21352313 C0.663566466,7.92170819 0.684918779,9.65124555 0.684918779,11.3594306 C0.684918779,11.7224199 0.96249885,12 1.32548817,12 L3.4820718,12 C3.84506113,12 4.1226412,11.7224199 4.1226412,11.3594306 L4.1226412,9.92882562 L12.3432818,9.92882562 L12.3432818,11.3594306 C12.3432818,11.7224199 12.6422142,12 12.9838512,12 L15.1617871,12 C15.5247764,12 15.8023565,11.7224199 15.8023565,11.3594306 C15.8023565,9.65124555 15.8237088,7.92170819 15.8237088,6.21352313 L15.2471964,4.84697509 C16.9340291,4.80427046 16.4642782,3.50177936 16.2294028,3.50177936 L14.6279793,3.50177936 L13.6030682,1.15302491 C12.9624989,0.277580071 12.5141003,0 11.745417,0 L4.72050597,0 Z M13.4536021,6.3202847 C12.8770896,6.3202847 12.4073387,6.79003559 12.4073387,7.36654804 C12.4073387,7.9430605 12.8770896,8.41281139 13.4536021,8.41281139 C14.0301145,8.41281139 14.4998654,7.9430605 14.4998654,7.36654804 C14.4998654,6.79003559 14.0301145,6.3202847 13.4536021,6.3202847 Z M3.01232091,6.3202847 C3.58883337,6.3202847 4.05858426,6.79003559 4.05858426,7.36654804 C4.05858426,7.9430605 3.58883337,8.41281139 3.01232091,8.41281139 C2.43580846,8.41281139 1.96605757,7.9430605 1.96605757,7.36654804 C1.96605757,6.79003559 2.43580846,6.3202847 3.01232091,6.3202847 Z"></path>
                </g>
            </g>
        </g>
    </g>
</svg>